<svg width="87" height="20" viewBox="0 0 87 20" fill="none" xmlns="http://www.w3.org/2000/svg">
<g clip-path="url(#clip0_949_2138)">
<g clip-path="url(#clip1_949_2138)">
<path d="M9.85473 20C8.49853 20 7.22408 19.7427 6.03044 19.2282C4.8368 18.7048 3.78621 17.9839 2.8796 17.0657C1.98228 16.1474 1.27538 15.0871 0.759843 13.8839C0.252662 12.6717 0 11.3774 0 10C0 8.6226 0.252662 7.31845 0.758914 6.11612C1.27446 4.90398 1.98135 3.84368 2.87867 2.93435C3.78621 2.01608 4.83587 1.29969 6.02951 0.785172C7.22408 0.261724 8.49853 0 9.85473 0C11.4785 0 12.9721 0.362662 14.3376 1.08799C15.7031 1.80438 16.8345 2.76373 17.7318 3.96695L14.6089 5.57838C14.045 4.90844 13.3437 4.3707 12.503 3.96695C11.6726 3.5632 10.7892 3.36132 9.85288 3.36132C8.97413 3.36132 8.14834 3.53551 7.37456 3.88477C6.60079 4.22421 5.92269 4.7021 5.34026 5.31755C4.75784 5.92318 4.30454 6.63064 3.97942 7.43904C3.6543 8.23761 3.49268 9.09156 3.49268 10.0009C3.49268 10.9102 3.65523 11.7776 3.97942 12.5761C4.31383 13.3747 4.77178 14.0822 5.3542 14.6976C5.93662 15.3042 6.61007 15.7812 7.37363 16.1304C8.14741 16.4699 8.9732 16.6405 9.85195 16.6405C10.8069 16.6405 11.6949 16.4386 12.516 16.0348C13.3465 15.6213 14.0441 15.0799 14.607 14.4091L17.73 16.0348C16.8327 17.2282 15.7013 18.1885 14.3358 18.9138C12.9703 19.6391 11.4757 20.0018 9.85288 20.0018L9.85473 20ZM20.4359 19.6418V0.358196H28.1272C29.2159 0.358196 30.1996 0.61992 31.0783 1.14337C31.9571 1.66682 32.6537 2.36891 33.1693 3.25056C33.6848 4.12327 33.9431 5.09156 33.9431 6.15721C33.9431 7.02992 33.7758 7.83296 33.4414 8.56722C33.1173 9.29254 32.6584 9.92139 32.0667 10.4547C31.4842 10.987 30.8108 11.3917 30.0472 11.6668L34.8459 19.6418H30.821L26.1802 11.9696H23.9313V19.6418H20.4368H20.4359ZM23.9304 8.60831H27.7259C28.2219 8.60831 28.6762 8.48861 29.0867 8.25011C29.4973 8.01161 29.8271 7.69004 30.0751 7.28629C30.3231 6.88254 30.4476 6.43234 30.4476 5.93658C30.4476 5.44082 30.3231 4.97722 30.0751 4.57258C29.8271 4.16883 29.4973 3.84725 29.0867 3.60875C28.6762 3.37025 28.2229 3.25056 27.7259 3.25056H23.9304V8.60831ZM37.5853 19.6418V0.358196H50.1617V3.71862H41.0807V7.63019H50.1617V10.9906H41.0807V16.2796H50.1617V19.64H37.5853V19.6418ZM76.641 0.30996C74.6485 0.296561 72.7888 0.837874 71.219 1.78294L68.0682 3.51407L68.5633 4.37606L69.5869 6.159L69.8015 6.5163L73.2422 4.63064C73.3508 4.569 73.4604 4.51005 73.5719 4.45556C74.4692 4.00804 75.4873 3.75525 76.5667 3.75525C80.1625 3.75525 83.0783 6.5556 83.0839 10.0125C83.0895 13.4506 80.2674 16.2242 76.6921 16.2885C76.2016 16.2975 75.7223 16.2546 75.2616 16.1644C73.6555 15.8499 72.264 14.9683 71.324 13.7454C71.0657 13.4105 70.9134 13.1898 70.4313 12.4627C70.2957 12.2582 70.1666 12.0491 70.0439 11.8365L67.0817 6.67977L63.3243 0.420724L52.1923 19.7347C52.1923 19.7347 69.0259 19.7499 69.0175 19.7445C67.3455 18.6726 66.6507 17.6936 65.8592 16.3502C65.8369 16.3126 58.2942 16.3466 58.2942 16.3466L63.3243 7.19607L67.1904 13.6356L68.1908 15.3015C68.5939 15.9732 69.0872 16.594 69.677 17.1237C71.0815 18.3841 72.8594 19.264 74.8343 19.5918C75.3972 19.6856 75.9759 19.7347 76.5667 19.7347C76.8426 19.7347 77.1157 19.724 77.386 19.7025C82.5498 19.305 86.6193 15.1693 86.6667 10.1108C86.7159 4.76641 82.1996 0.34837 76.641 0.30996Z"/>
</g>
</g>
<defs>
<clipPath id="clip0_949_2138">
<rect width="86.6667" height="20" fill="white"/>
</clipPath>
<clipPath id="clip1_949_2138">
<rect width="86.6667" height="20" fill="white"/>
</clipPath>
</defs>
</svg>
